<svg xmlns="http://www.w3.org/2000/svg" width="24" height="24.668" viewBox="0 0 24 24.668">
  <g id="그룹_2446" data-name="그룹 2446" transform="translate(-15417 16926.523)">
    <path id="합치기_9" data-name="합치기 9" d="M5.333,24.667A5.44,5.44,0,0,1,0,19.126V8.042A5.44,5.44,0,0,1,5.333,2.5h.084V1.25a1.25,1.25,0,0,1,2.5,0V2.5h8.166V1.25a1.25,1.25,0,0,1,2.5,0V2.5h.084A5.44,5.44,0,0,1,24,8.042V19.126a5.44,5.44,0,0,1-5.333,5.541Z" transform="translate(15417 -16926.523)" fill="#c6c5cd"/>
    <circle id="타원_84" data-name="타원 84" cx="1.5" cy="1.5" r="1.5" transform="translate(15432.833 -16917.746)" fill="#c6c5cd"/>
    <circle id="타원_85" data-name="타원 85" cx="1.5" cy="1.5" r="1.5" transform="translate(15427.5 -16917.746)" fill="#c6c5cd"/>
    <circle id="타원_86" data-name="타원 86" cx="1.5" cy="1.5" r="1.5" transform="translate(15422.167 -16917.746)" fill="#c6c5cd"/>
    <circle id="타원_87" data-name="타원 87" cx="1.5" cy="1.5" r="1.5" transform="translate(15422.167 -16912.057)" fill="#c6c5cd"/>
    <path id="패스_1195" data-name="패스 1195" d="M1.5,0A1.5,1.5,0,1,1,0,1.5,1.5,1.5,0,0,1,1.5,0Z" transform="translate(15432.833 -16917.746)" fill="#fff"/>
    <path id="패스_1194" data-name="패스 1194" d="M1.5,0A1.5,1.5,0,1,1,0,1.5,1.5,1.5,0,0,1,1.5,0Z" transform="translate(15427.5 -16917.746)" fill="#fff"/>
    <path id="패스_1196" data-name="패스 1196" d="M1.5,0A1.5,1.5,0,1,1,0,1.5,1.5,1.5,0,0,1,1.5,0Z" transform="translate(15422.167 -16912.057)" fill="#fff"/>
    <circle id="타원_86-2" data-name="타원 86" cx="1.5" cy="1.5" r="1.5" transform="translate(15422.167 -16917.746)" fill="#fff"/>
  </g>
</svg>
