<svg xmlns="http://www.w3.org/2000/svg" width="26" height="26" viewBox="0 0 26 26">
  <g id="그룹_2448" data-name="그룹 2448" transform="translate(-0.833 -0.732)">
    <path id="패스_1070" data-name="패스 1070" d="M1.893,3.565A3.612,3.612,0,0,1,4.453,2.5H12.9a1.212,1.212,0,0,1,0,2.423H4.453A1.209,1.209,0,0,0,3.246,6.135V23.1a1.209,1.209,0,0,0,1.206,1.212h16.89A1.209,1.209,0,0,0,22.549,23.1V14.616a1.206,1.206,0,1,1,2.413,0V23.1a3.627,3.627,0,0,1-3.619,3.635H4.453A3.627,3.627,0,0,1,.833,23.1V6.135A3.643,3.643,0,0,1,1.893,3.565Z" transform="translate(0)" fill="#fff" fill-rule="evenodd"/>
    <path id="패스_1071" data-name="패스 1071" d="M18.735,2.717a1.113,1.113,0,0,0-.787.326L8.714,12.277l-.525,2.1,2.1-.525,9.234-9.234a1.113,1.113,0,0,0-.787-1.9ZM16.545,1.64a3.1,3.1,0,0,1,4.381,4.381L11.5,15.449a.992.992,0,0,1-.461.261l-3.97.992a.992.992,0,0,1-1.2-1.2l.992-3.97a.993.993,0,0,1,.261-.461Z" transform="translate(5)" fill="#fff" fill-rule="evenodd"/>
  </g>
</svg>
